<svg width="1222" height="1223" viewBox="0 0 1222 1223" fill="none" xmlns="http://www.w3.org/2000/svg">
<path d="M92.6584 611C92.6584 896.606 325.394 1129.34 611 1129.34C896.606 1129.34 1129.34 896.606 1129.34 611V2.1802C1122.26 0.545049 1114.63 0 1106.99 0H115.005C107.375 0 99.7441 0.545049 92.6584 2.1802V611Z" fill="#32595A"/>
<path d="M1151.14 9V611.279C1151.14 908.876 908.597 1151.42 611 1151.42C313.403 1151.42 70.8564 908.876 70.8564 611.279V9C29.4326 26.4416 0 67.3202 0 115.285V611.279C0 948.665 273.615 1222.28 611 1222.28C948.385 1222.28 1222 948.665 1222 611.279V115.285C1222 67.3202 1192.57 26.4416 1151.14 9Z" fill="#32595A"/>
<path d="M278.231 423V333.656H339.031V350.936H297.687V369.24H333.143V386.392H297.687V405.72H339.031V423H278.231ZM422.797 364.376H422.413L415.885 377.432L398.477 409.048L381.453 377.56L374.669 363.48H374.285V423H355.981V333.656H376.589L398.477 375.512H398.733L420.365 333.656H441.101V423H422.797V364.376ZM460.856 423V333.656H521.656V350.936H480.312V369.24H515.768V386.392H480.312V405.72H521.656V423H460.856ZM558.062 423H538.606V333.656H580.974C585.07 333.656 588.782 334.339 592.11 335.704C595.438 337.069 598.254 339.032 600.558 341.592C602.947 344.067 604.782 347.053 606.062 350.552C607.342 354.051 607.982 357.933 607.982 362.2C607.982 368.259 606.617 373.549 603.886 378.072C601.241 382.595 597.187 385.88 591.726 387.928L609.262 423H587.63L572.014 390.232H558.062V423ZM578.542 373.848C581.443 373.848 583.705 373.123 585.326 371.672C587.033 370.136 587.886 367.917 587.886 365.016V359.384C587.886 356.483 587.033 354.307 585.326 352.856C583.705 351.32 581.443 350.552 578.542 350.552H558.062V373.848H578.542ZM680.31 408.792H679.67C678.987 413.315 676.683 417.069 672.758 420.056C668.833 423.043 663.499 424.536 656.758 424.536C651.638 424.536 646.859 423.555 642.422 421.592C637.985 419.629 634.102 416.728 630.774 412.888C627.446 409.048 624.843 404.269 622.966 398.552C621.089 392.835 620.15 386.221 620.15 378.712C620.15 371.203 621.131 364.547 623.094 358.744C625.057 352.941 627.787 348.077 631.286 344.152C634.87 340.227 639.137 337.24 644.086 335.192C649.035 333.144 654.539 332.12 660.598 332.12C668.619 332.12 675.531 333.869 681.334 337.368C687.137 340.781 691.702 345.944 695.03 352.856L679.158 361.944C677.793 358.445 675.659 355.501 672.758 353.112C669.857 350.637 665.803 349.4 660.598 349.4C654.539 349.4 649.718 351.149 646.134 354.648C642.55 358.147 640.758 363.651 640.758 371.16V385.496C640.758 392.92 642.55 398.424 646.134 402.008C649.718 405.507 654.539 407.256 660.598 407.256C662.987 407.256 665.249 407 667.382 406.488C669.515 405.891 671.393 405.037 673.014 403.928C674.635 402.733 675.873 401.325 676.726 399.704C677.665 398.083 678.134 396.163 678.134 393.944V389.464H661.494V373.208H696.694V423H680.31V408.792ZM712.15 423V407.512H723.67V349.144H712.15V333.656H754.646V349.144H743.126V407.512H754.646V423H712.15ZM798.12 380.76L789.544 362.84H789.16V423H770.856V333.656H792.104L816.552 375.896L825.128 393.816H825.512V333.656H843.816V423H822.568L798.12 380.76ZM920.185 408.792H919.545C918.862 413.315 916.558 417.069 912.633 420.056C908.708 423.043 903.374 424.536 896.633 424.536C891.513 424.536 886.734 423.555 882.297 421.592C877.86 419.629 873.977 416.728 870.649 412.888C867.321 409.048 864.718 404.269 862.841 398.552C860.964 392.835 860.025 386.221 860.025 378.712C860.025 371.203 861.006 364.547 862.969 358.744C864.932 352.941 867.662 348.077 871.161 344.152C874.745 340.227 879.012 337.24 883.961 335.192C888.91 333.144 894.414 332.12 900.473 332.12C908.494 332.12 915.406 333.869 921.209 337.368C927.012 340.781 931.577 345.944 934.905 352.856L919.033 361.944C917.668 358.445 915.534 355.501 912.633 353.112C909.732 350.637 905.678 349.4 900.473 349.4C894.414 349.4 889.593 351.149 886.009 354.648C882.425 358.147 880.633 363.651 880.633 371.16V385.496C880.633 392.92 882.425 398.424 886.009 402.008C889.593 405.507 894.414 407.256 900.473 407.256C902.862 407.256 905.124 407 907.257 406.488C909.39 405.891 911.268 405.037 912.889 403.928C914.51 402.733 915.748 401.325 916.601 399.704C917.54 398.083 918.009 396.163 918.009 393.944V389.464H901.369V373.208H936.569V423H920.185V408.792ZM168.354 516.936V589H148.898V516.936H124.706V499.656H192.546V516.936H168.354ZM205.856 589V499.656H266.656V516.936H225.312V535.24H260.768V552.392H225.312V571.72H266.656V589H205.856ZM319.702 590.536C313.643 590.536 308.182 589.597 303.318 587.72C298.454 585.757 294.315 582.899 290.902 579.144C287.489 575.304 284.843 570.568 282.966 564.936C281.089 559.219 280.15 552.563 280.15 544.968C280.15 537.459 281.089 530.803 282.966 525C284.843 519.112 287.489 514.205 290.902 510.28C294.315 506.269 298.454 503.24 303.318 501.192C308.182 499.144 313.643 498.12 319.702 498.12C327.979 498.12 334.806 499.827 340.182 503.24C345.558 506.568 349.867 511.859 353.11 519.112L336.342 527.816C335.147 524.061 333.27 521.075 330.71 518.856C328.235 516.552 324.566 515.4 319.702 515.4C313.985 515.4 309.377 517.277 305.878 521.032C302.465 524.701 300.758 530.077 300.758 537.16V551.496C300.758 558.579 302.465 563.997 305.878 567.752C309.377 571.421 313.985 573.256 319.702 573.256C324.481 573.256 328.278 571.976 331.094 569.416C333.995 566.771 336.129 563.613 337.494 559.944L353.366 569.16C350.038 575.987 345.643 581.277 340.182 585.032C334.806 588.701 327.979 590.536 319.702 590.536ZM420.485 552.392H386.437V589H366.981V499.656H386.437V535.24H420.485V499.656H439.941V589H420.485V552.392ZM486.87 546.76L478.294 528.84H477.91V589H459.606V499.656H480.854L505.302 541.896L513.878 559.816H514.262V499.656H532.566V589H511.318L486.87 546.76ZM588.071 590.536C582.183 590.536 576.807 589.555 571.943 587.592C567.079 585.629 562.94 582.728 559.527 578.888C556.114 574.963 553.468 570.141 551.591 564.424C549.714 558.621 548.775 551.923 548.775 544.328C548.775 536.733 549.714 530.077 551.591 524.36C553.468 518.557 556.114 513.736 559.527 509.896C562.94 505.971 567.079 503.027 571.943 501.064C576.807 499.101 582.183 498.12 588.071 498.12C593.959 498.12 599.335 499.101 604.199 501.064C609.063 503.027 613.202 505.971 616.615 509.896C620.028 513.736 622.674 518.557 624.551 524.36C626.428 530.077 627.367 536.733 627.367 544.328C627.367 551.923 626.428 558.621 624.551 564.424C622.674 570.141 620.028 574.963 616.615 578.888C613.202 582.728 609.063 585.629 604.199 587.592C599.335 589.555 593.959 590.536 588.071 590.536ZM588.071 573.256C593.959 573.256 598.524 571.336 601.767 567.496C605.095 563.656 606.759 558.152 606.759 550.984V537.672C606.759 530.504 605.095 525 601.767 521.16C598.524 517.32 593.959 515.4 588.071 515.4C582.183 515.4 577.575 517.32 574.247 521.16C571.004 525 569.383 530.504 569.383 537.672V550.984C569.383 558.152 571.004 563.656 574.247 567.496C577.575 571.336 582.183 573.256 588.071 573.256ZM643.606 589V499.656H663.062V571.72H697.11V589H643.606ZM742.196 590.536C736.308 590.536 730.932 589.555 726.068 587.592C721.204 585.629 717.065 582.728 713.652 578.888C710.239 574.963 707.593 570.141 705.716 564.424C703.839 558.621 702.9 551.923 702.9 544.328C702.9 536.733 703.839 530.077 705.716 524.36C707.593 518.557 710.239 513.736 713.652 509.896C717.065 505.971 721.204 503.027 726.068 501.064C730.932 499.101 736.308 498.12 742.196 498.12C748.084 498.12 753.46 499.101 758.324 501.064C763.188 503.027 767.327 505.971 770.74 509.896C774.153 513.736 776.799 518.557 778.676 524.36C780.553 530.077 781.492 536.733 781.492 544.328C781.492 551.923 780.553 558.621 778.676 564.424C776.799 570.141 774.153 574.963 770.74 578.888C767.327 582.728 763.188 585.629 758.324 587.592C753.46 589.555 748.084 590.536 742.196 590.536ZM742.196 573.256C748.084 573.256 752.649 571.336 755.892 567.496C759.22 563.656 760.884 558.152 760.884 550.984V537.672C760.884 530.504 759.22 525 755.892 521.16C752.649 517.32 748.084 515.4 742.196 515.4C736.308 515.4 731.7 517.32 728.372 521.16C725.129 525 723.508 530.504 723.508 537.672V550.984C723.508 558.152 725.129 563.656 728.372 567.496C731.7 571.336 736.308 573.256 742.196 573.256ZM854.435 574.792H853.795C853.112 579.315 850.808 583.069 846.883 586.056C842.958 589.043 837.624 590.536 830.883 590.536C825.763 590.536 820.984 589.555 816.547 587.592C812.11 585.629 808.227 582.728 804.899 578.888C801.571 575.048 798.968 570.269 797.091 564.552C795.214 558.835 794.275 552.221 794.275 544.712C794.275 537.203 795.256 530.547 797.219 524.744C799.182 518.941 801.912 514.077 805.411 510.152C808.995 506.227 813.262 503.24 818.211 501.192C823.16 499.144 828.664 498.12 834.723 498.12C842.744 498.12 849.656 499.869 855.459 503.368C861.262 506.781 865.827 511.944 869.155 518.856L853.283 527.944C851.918 524.445 849.784 521.501 846.883 519.112C843.982 516.637 839.928 515.4 834.723 515.4C828.664 515.4 823.843 517.149 820.259 520.648C816.675 524.147 814.883 529.651 814.883 537.16V551.496C814.883 558.92 816.675 564.424 820.259 568.008C823.843 571.507 828.664 573.256 834.723 573.256C837.112 573.256 839.374 573 841.507 572.488C843.64 571.891 845.518 571.037 847.139 569.928C848.76 568.733 849.998 567.325 850.851 565.704C851.79 564.083 852.259 562.163 852.259 559.944V555.464H835.619V539.208H870.819V589H854.435V574.792ZM886.275 589V573.512H897.795V515.144H886.275V499.656H928.771V515.144H917.251V573.512H928.771V589H886.275ZM944.981 589V499.656H1005.78V516.936H964.437V535.24H999.893V552.392H964.437V571.72H1005.78V589H944.981ZM1051.66 590.536C1043.81 590.536 1037.15 589.213 1031.69 586.568C1026.23 583.837 1021.58 580.339 1017.74 576.072L1030.54 563.144C1036.6 569.971 1044.06 573.384 1052.94 573.384C1057.72 573.384 1061.26 572.403 1063.56 570.44C1065.87 568.477 1067.02 565.875 1067.02 562.632C1067.02 560.157 1066.34 558.109 1064.97 556.488C1063.61 554.781 1060.83 553.629 1056.65 553.032L1047.82 551.88C1038.35 550.685 1031.39 547.827 1026.96 543.304C1022.6 538.781 1020.43 532.765 1020.43 525.256C1020.43 521.245 1021.2 517.576 1022.73 514.248C1024.27 510.92 1026.44 508.061 1029.26 505.672C1032.16 503.283 1035.66 501.448 1039.76 500.168C1043.94 498.803 1048.67 498.12 1053.96 498.12C1060.7 498.12 1066.64 499.187 1071.76 501.32C1076.88 503.453 1081.27 506.568 1084.94 510.664L1072.01 523.72C1069.88 521.245 1067.28 519.24 1064.2 517.704C1061.22 516.083 1057.42 515.272 1052.81 515.272C1048.46 515.272 1045.22 516.04 1043.08 517.576C1040.95 519.112 1039.88 521.245 1039.88 523.976C1039.88 527.048 1040.69 529.267 1042.32 530.632C1044.02 531.997 1046.75 532.979 1050.51 533.576L1059.34 534.984C1068.56 536.435 1075.38 539.293 1079.82 543.56C1084.26 547.741 1086.48 553.715 1086.48 561.48C1086.48 565.747 1085.71 569.672 1084.17 573.256C1082.64 576.84 1080.37 579.912 1077.39 582.472C1074.49 585.032 1070.86 587.037 1066.51 588.488C1062.16 589.853 1057.21 590.536 1051.66 590.536Z" fill="white"/>
</svg>
